# xmcd CD database file
#
# Track frame offsets:
#	150
#	16519
#	31263
#	47655
#	64572
#	82155
#	98764
#	114921
#	129349
#	145160
#	163010
#	179343
#	198940
#	215789
#	230436
#	247118
#	262065
#	278857
#
# Disc length: 3903 seconds
#
# Revision: 0
# Processed by: cddbd v1.5.2PL0 Copyright (c) Steve Scherf et al.
# Submitted via: CDex 1.70beta2
#
DISCID=fa0f3d12
DTITLE=Various Artist - Country Music Pioneers On Edison
DYEAR=1900
DGENRE=Country
TTITLE0=Shirley Spaulding - Somewhere in Dixie
TTITLE1=Fred Van Eps - Medley of Southern Melodies
TTITLE2=Jasper Bisbee - The Devils Dream
TTITLE3=Vernon Dalhart - Wreck of the Old Southern 97
TTITLE4=Allen Sisson - Kaisers Defeat Jig
TTITLE5=Allen Sisson - Sally Brown Jig
TTITLE6=Blue Ridge Duo - Lonesome Road Blues
TTITLE7=Austin and Reneau - The Railroad Blues
TTITLE8=Fiddlin' Powers and Family - Ida Red
TTITLE9=Dalhart and Robison - Just a Melody
TTITLE10=Vernon Dalhart - Kinnie Wagners Surrender
TTITLE11=Dixie Mountaineers - Hop Light Ladies
TTITLE12=Ernest Stoneman - Sally Goodwin
TTITLE13=Frank Luther - Barbara Allen
TTITLE14=Frank Wallace - Oklahoma Blues
TTITLE15=Posey Rorer - Down in a Georgia Jail
TTITLE16=The Rail Splitters - West Virginia Highway
TTITLE17=Carson Robison's Madcaps - Nonsense
EXTD=
EXTT0=
EXTT1=
EXTT2=
EXTT3=
EXTT4=
EXTT5=
EXTT6=
EXTT7=
EXTT8=
EXTT9=
EXTT10=
EXTT11=
EXTT12=
EXTT13=
EXTT14=
EXTT15=
EXTT16=
EXTT17=
PLAYORDER=
